<svg width="24" height="24" viewBox="0 0 24 24" fill="none" xmlns="http://www.w3.org/2000/svg">
<rect x="0.333333" y="0.333333" width="23.3333" height="23.3333" rx="5.66667" fill="#EFEEED"/>
<rect x="0.333333" y="0.333333" width="23.3333" height="23.3333" rx="5.66667" stroke="#E3E1DF" stroke-width="0.666667"/>
<path d="M14.6667 15.3333L18 12M18 12L14.6667 8.66667M18 12H10M10 6H9.2C8.0799 6 7.51984 6 7.09202 6.21799C6.7157 6.40973 6.40973 6.71569 6.21799 7.09202C6 7.51984 6 8.07989 6 9.2V14.8C6 15.9201 6 16.4802 6.21799 16.908C6.40973 17.2843 6.71569 17.5903 7.09202 17.782C7.51984 18 8.0799 18 9.2 18H10" stroke="#7E7E7B" stroke-width="1.33" stroke-linecap="round" stroke-linejoin="round"/>
</svg>
